HIERARCHY
ROOT Hips
{
	OFFSET 0.000000 89.005402 0.000000
	CHANNELS 6 Xposition Yposition Zposition Xrotation Yrotation Zrotation
	JOINT Spine
	{
		OFFSET 0.116900 10.681000 0.373400
		CHANNELS 3 Xrotation Yrotation Zrotation
		JOINT Spine1
		{
			OFFSET 0.000000 13.840401 0.053500
			CHANNELS 3 Xrotation Yrotation Zrotation
			JOINT Spine2
			{
				OFFSET 0.000000 14.712700 -0.366200
				CHANNELS 3 Xrotation Yrotation Zrotation
				JOINT Neck
				{
					OFFSET 0.000000 35.415497 -3.314200
					CHANNELS 3 Xrotation Yrotation Zrotation
					JOINT Head
					{
						OFFSET 0.000000 16.899200 1.218300
						CHANNELS 3 Xrotation Yrotation Zrotation
						JOINT HeadTop_End
						{
							OFFSET 0.000000 22.206207 2.192500
							CHANNELS 3 Xrotation Yrotation Zrotation
							End Site
							{
								OFFSET 0.000000 22.314178 0.000000
							}
						}
					}
				}
				JOINT LeftShoulder
				{
					OFFSET 12.896400 26.716293 -4.548400
					CHANNELS 3 Xrotation Yrotation Zrotation
					JOINT LeftArm
					{
						OFFSET 19.027000 -4.857010 -1.718400
						CHANNELS 3 Xrotation Yrotation Zrotation
						JOINT LeftForeArm
						{
							OFFSET 24.179897 0.000000 0.000000
							CHANNELS 3 Xrotation Yrotation Zrotation
							JOINT LeftHand
							{
								OFFSET 27.156403 0.000000 0.000000
								CHANNELS 3 Xrotation Yrotation Zrotation
								JOINT LeftHandIndex1
								{
									OFFSET 16.441200 0.000000 0.000000
									CHANNELS 3 Xrotation Yrotation Zrotation
									JOINT LeftHandIndex2
									{
										OFFSET 4.821899 0.000000 0.000000
										CHANNELS 3 Xrotation Yrotation Zrotation
										JOINT LeftHandIndex3
										{
											OFFSET 6.386497 0.000000 0.000000
											CHANNELS 3 Xrotation Yrotation Zrotation
											JOINT LeftHandIndex4
											{
												OFFSET 5.188988 0.000000 0.000000
												CHANNELS 3 Xrotation Yrotation Zrotation
												End Site
												{
													OFFSET -0.178703 5.185913 0.000177
												}
											}
										}
									}
								}
								JOINT LeftHandThumb1
								{
									OFFSET 6.534897 -5.032593 5.900300
									CHANNELS 3 Xrotation Yrotation Zrotation
									JOINT LeftHandThumb2
									{
										OFFSET 3.818176 -2.204422 2.204423
										CHANNELS 3 Xrotation Yrotation Zrotation
										JOINT LeftHandThumb3
										{
											OFFSET 3.252098 -1.877594 1.877601
											CHANNELS 3 Xrotation Yrotation Zrotation
											JOINT LeftHandThumb4
											{
												OFFSET 5.251778 -3.032120 3.032117
												CHANNELS 3 Xrotation Yrotation Zrotation
												End Site
												{
													OFFSET 0.000023 6.780014 0.000000
												}
											}
										}
									}
								}
							}
						}
					}
				}
				JOINT RightShoulder
				{
					OFFSET -12.896300 26.716293 -4.548400
					CHANNELS 3 Xrotation Yrotation Zrotation
					JOINT RightArm
					{
						OFFSET -19.027000 -4.857010 -1.718400
						CHANNELS 3 Xrotation Yrotation Zrotation
						JOINT RightForeArm
						{
							OFFSET -24.179897 0.000000 0.000000
							CHANNELS 3 Xrotation Yrotation Zrotation
							JOINT RightHand
							{
								OFFSET -27.156403 0.000000 0.000000
								CHANNELS 3 Xrotation Yrotation Zrotation
								JOINT RightHandThumb1
								{
									OFFSET -6.591202 -4.852203 5.988100
									CHANNELS 3 Xrotation Yrotation Zrotation
									JOINT RightHandThumb2
									{
										OFFSET -3.818176 -2.204422 2.204423
										CHANNELS 3 Xrotation Yrotation Zrotation
										JOINT RightHandThumb3
										{
											OFFSET -3.252098 -1.877594 1.877601
											CHANNELS 3 Xrotation Yrotation Zrotation
											JOINT RightHandThumb4
											{
												OFFSET -5.251778 -3.032120 3.032117
												CHANNELS 3 Xrotation Yrotation Zrotation
												End Site
												{
													OFFSET -0.000023 6.780014 0.000000
												}
											}
										}
									}
								}
								JOINT RightHandIndex1
								{
									OFFSET -16.029404 0.000000 0.000000
									CHANNELS 3 Xrotation Yrotation Zrotation
									JOINT RightHandIndex2
									{
										OFFSET -5.213303 0.000000 0.000000
										CHANNELS 3 Xrotation Yrotation Zrotation
										JOINT RightHandIndex3
										{
											OFFSET -6.386528 0.000000 0.000000
											CHANNELS 3 Xrotation Yrotation Zrotation
											JOINT RightHandIndex4
											{
												OFFSET -5.189026 0.000000 0.000000
												CHANNELS 3 Xrotation Yrotation Zrotation
												End Site
												{
													OFFSET 0.236702 5.183624 0.001972
												}
											}
										}
									}
								}
							}
						}
					}
				}
			}
		}
	}
	JOINT LeftUpLeg
	{
		OFFSET 14.073000 -7.904099 -1.463000
		CHANNELS 3 Xrotation Yrotation Zrotation
		JOINT LeftLeg
		{
			OFFSET -0.109806 -34.073280 4.093200
			CHANNELS 3 Xrotation Yrotation Zrotation
			JOINT LeftFoot
			{
				OFFSET 0.109806 -29.899420 -6.319000
				CHANNELS 3 Xrotation Yrotation Zrotation
				JOINT LeftToeBase
				{
					OFFSET 1.551100 -14.988700 20.535801
					CHANNELS 3 Xrotation Yrotation Zrotation
					JOINT LeftToe_End
					{
						OFFSET 0.221200 0.570800 13.248301
						CHANNELS 3 Xrotation Yrotation Zrotation
						End Site
						{
							OFFSET 0.000000 13.262435 0.000000
						}
					}
				}
			}
		}
	}
	JOINT RightUpLeg
	{
		OFFSET -13.839300 -7.904099 -1.463000
		CHANNELS 3 Xrotation Yrotation Zrotation
		JOINT RightLeg
		{
			OFFSET 0.109694 -34.073219 4.093300
			CHANNELS 3 Xrotation Yrotation Zrotation
			JOINT RightFoot
			{
				OFFSET -0.109694 -29.899384 -6.319200
				CHANNELS 3 Xrotation Yrotation Zrotation
				JOINT RightToeBase
				{
					OFFSET -1.551100 -14.988700 20.535801
					CHANNELS 3 Xrotation Yrotation Zrotation
					JOINT RightToe_End
					{
						OFFSET -0.221200 0.570900 13.248299
						CHANNELS 3 Xrotation Yrotation Zrotation
						End Site
						{
							OFFSET 0.000000 13.262440 0.000000
						}
					}
				}
			}
		}
	}
}
MOTION
Frames: 4
Frame Time: 0.033333
-29.342543 77.661537 -12.534533 29.722856 71.368954 -10.237447 12.151187 -11.071973 11.384447 7.790122 -1.249064 5.793843 7.886264 -1.295730 5.653784 -4.876474 -7.839482 6.265669 -17.208989 -33.389066 4.609835 0.000002 -0.000001 0.000000 -1.694517 17.493815 -2.285364 -15.732656 41.359148 -23.011831 0.000001 -36.169113 0.000001 -8.306341 9.218622 13.591618 -1.986831 -8.376355 -12.955521 0.255082 1.860351 -15.613524 0.233752 1.782318 -14.942487 -0.000000 -0.000000 -0.000000 -3.309737 12.419760 14.508782 4.485906 14.573018 1.246199 -0.579469 1.574998 2.538718 -0.000000 -0.000000 -0.000001 1.149797 3.981593 -8.148903 -50.845680 8.979204 31.789135 -0.000018 36.849168 0.000003 -7.552679 6.268017 -20.641754 -0.246295 -18.751811 -2.416328 5.402077 -17.174024 -0.808087 -0.465468 -8.962766 -3.038676 -0.000000 0.000003 -0.000002 -1.592135 5.917533 13.811104 0.383282 -2.280830 19.076027 0.334654 -2.135102 17.813499 -0.000001 0.000003 -0.000000 -16.273663 14.150042 12.299445 33.034633 8.192166 2.047259 7.013318 0.533728 -32.262467 -18.154732 0.263352 -2.601510 -0.000000 -0.000000 -0.000000 -48.131708 0.770278 -31.753720 60.774449 -6.926342 -1.206422 -21.233229 -7.415740 11.788842 -0.001673 0.000003 0.000004 -0.000000 0.000002 0.000000 
-28.928574 77.470863 -12.247316 29.678480 70.866867 -11.059573 11.643772 -11.597309 10.960622 8.099227 -1.258491 6.062747 8.203802 -1.313600 5.911173 -4.570022 -7.738265 6.917757 -17.217956 -32.337613 4.719170 0.000002 0.000000 0.000001 -1.856143 19.147817 -2.645478 -19.282399 41.091716 -19.663269 -0.000007 -37.306107 0.000004 -6.448029 10.639727 14.643731 -1.966356 -8.398001 -12.815185 0.272904 1.922946 -16.153426 0.234915 1.786653 -14.979752 0.000000 -0.000002 -0.000000 -3.309737 12.419757 14.508778 4.485911 14.573016 1.246202 -0.579471 1.575002 2.538711 -0.000000 -0.000001 -0.000001 1.335394 4.857082 -8.389034 -50.427215 8.026356 31.582108 -0.000001 38.259257 -0.000003 -7.354264 3.877571 -18.922542 -0.246297 -18.751810 -2.416327 5.402083 -17.174024 -0.808084 -0.465469 -8.962766 -3.038683 0.000003 -0.000002 -0.000000 -1.599859 5.906319 13.886164 0.402238 -2.334901 19.546914 0.360656 -2.214390 18.499260 -0.000000 -0.000003 0.000002 -12.644103 15.252873 9.163116 26.622348 9.933013 2.663053 1.087203 5.823701 -32.139783 -16.749459 0.000021 0.000008 0.000001 -0.000001 0.000000 -47.848709 0.291336 -30.691988 60.991274 -6.941987 -1.070291 -21.926531 -7.204835 11.663167 -0.001758 -0.000002 -0.000003 0.000000 0.000002 0.000000 
-28.802330 77.783585 -12.144846 28.888329 71.085098 -11.007787 11.433357 -11.504611 10.590360 7.943109 -1.249198 6.043877 8.046666 -1.299962 5.896768 -3.266863 -7.862317 7.889357 -17.167718 -32.901154 5.326986 0.000002 0.000000 -0.000000 -2.004439 20.370672 -2.590088 -23.651227 38.174873 -17.233745 -0.000001 -37.288052 -0.000012 -5.519002 12.265398 16.171952 -1.980197 -8.383378 -12.909991 0.276534 1.935436 -16.261215 0.255078 1.860348 -15.613531 -0.000001 0.000000 -0.000000 -3.309734 12.419757 14.508773 4.485912 14.573015 1.246202 -0.579471 1.575003 2.538718 -0.000000 0.000003 0.000000 1.603372 6.051353 -8.621714 -48.926052 5.059113 30.749385 -0.000005 39.260545 0.000006 -7.255158 -1.392613 -17.537387 -0.246295 -18.751811 -2.416325 5.402078 -17.174026 -0.808084 -0.465466 -8.962765 -3.038676 0.000003 -0.000003 0.000002 -1.612420 5.888021 14.008423 0.411620 -2.361140 19.775891 0.383287 -2.280827 19.076022 0.000001 -0.000000 0.000001 -11.908411 14.326844 8.612250 26.193934 9.384566 1.050464 -0.690747 9.545316 -29.861580 -14.660000 -0.000029 -0.000003 0.000000 0.000004 0.000000 -46.354237 0.066887 -29.590995 59.942293 -7.045554 -1.116541 -21.697677 -8.022850 11.715747 -0.001718 0.000000 0.000000 0.000000 0.000000 -0.000000 
-28.865353 77.763641 -12.931400 28.270969 72.466709 -11.109725 11.368513 -10.856172 10.799619 7.373447 -1.229410 5.799754 7.468534 -1.267749 5.669798 -1.497305 -8.134158 8.488605 -17.047901 -35.044458 6.023055 0.000002 0.000000 -0.000000 -2.050118 19.655280 -1.756461 -26.831461 35.321350 -16.993946 0.000003 -36.975612 -0.000003 -5.483065 10.712243 16.774731 -2.058747 -8.299474 -13.451503 0.273004 1.923298 -16.156481 0.272904 1.922973 -16.153423 0.000001 -0.000001 -0.000000 -3.309736 12.419756 14.508778 4.485908 14.573016 1.246202 -0.579468 1.574998 2.538719 -0.000002 0.000001 0.000001 1.766459 6.750188 -8.492315 -46.936418 1.495075 29.656675 0.000000 38.658789 -0.000000 -7.212074 -4.491558 -16.556177 -0.246301 -18.751811 -2.416325 5.402074 -17.174019 -0.808084 -0.465468 -8.962768 -3.038678 0.000000 0.000002 0.000001 -1.648771 5.834612 14.364376 0.413947 -2.367582 19.832177 0.402249 -2.334906 19.546927 0.000000 -0.000000 0.000001 -15.937833 13.823219 11.329406 33.839749 10.105106 -0.796298 -0.372655 5.672108 -29.726134 -18.039622 -0.000016 -0.000002 0.000000 -0.000001 0.000000 -44.739552 0.569731 -29.433379 59.579228 -6.788595 -1.227199 -21.063118 -10.243272 12.590912 -0.001668 -0.000020 -0.000003 -0.000000 -0.000003 -0.000000 
